<svg width="585" height="163" viewBox="0 0 585 163" fill="none" xmlns="http://www.w3.org/2000/svg">
<path fill-rule="evenodd" clip-rule="evenodd" d="M215.471 130.949C215.471 124.717 215.471 123.593 215.4 122.313C215.329 120.956 215.041 120.315 213.857 120.036C213.569 119.958 212.961 119.916 212.636 119.916C212.494 119.916 212.348 119.835 212.348 119.676C212.348 119.436 212.528 119.355 212.921 119.355C214.538 119.355 216.692 119.475 216.98 119.475C217.768 119.475 219.851 119.355 221.502 119.355C225.987 119.355 227.604 121.035 228.178 121.635C228.969 122.474 229.972 124.273 229.972 126.393C229.972 132.07 226.241 135.909 221.143 135.909C220.965 135.909 220.569 135.909 220.391 135.869C220.21 135.869 219.995 135.789 219.995 135.59C219.995 135.267 220.21 135.228 220.965 135.228C224.447 135.228 227.174 132.391 227.174 128.712C227.174 127.392 227.064 124.717 225.164 122.555C223.26 120.396 221.072 120.555 220.247 120.555C219.636 120.555 219.026 120.636 218.704 120.795C218.486 120.876 218.415 121.155 218.415 121.556V137.987C218.415 141.823 218.415 144.983 218.594 146.663C218.704 147.823 218.918 148.702 219.995 148.861C220.498 148.944 221.287 149.022 221.609 149.022C221.824 149.022 221.897 149.142 221.897 149.262C221.897 149.463 221.717 149.583 221.324 149.583C219.348 149.583 217.087 149.463 216.909 149.463C216.801 149.463 214.538 149.583 213.461 149.583C213.068 149.583 212.887 149.502 212.887 149.262C212.887 149.142 212.961 149.022 213.173 149.022C213.498 149.022 213.927 148.944 214.252 148.861C214.97 148.702 215.148 147.823 215.292 146.663C215.471 144.983 215.471 141.823 215.471 137.987V130.949Z" fill="#003480"/>
<path fill-rule="evenodd" clip-rule="evenodd" d="M254.267 120.356C254.699 119.037 254.841 118.797 255.058 118.797C255.271 118.797 255.417 118.998 255.847 120.236C256.384 121.756 262.02 138.268 264.21 144.344C265.502 147.901 266.544 148.545 267.296 148.782C267.836 148.983 268.373 149.022 268.732 149.022C268.947 149.022 269.091 149.061 269.091 149.262C269.091 149.502 268.769 149.583 268.373 149.583C267.836 149.583 265.216 149.583 262.738 149.502C262.056 149.463 261.661 149.463 261.661 149.223C261.661 149.061 261.768 148.983 261.912 148.944C262.13 148.86 262.342 148.501 262.13 147.864L258.789 138.026C258.718 137.867 258.648 137.788 258.467 137.788H250.75C250.572 137.788 250.464 137.908 250.391 138.106L248.237 145.184C247.912 146.182 247.734 147.144 247.734 147.864C247.734 148.665 248.489 149.022 249.099 149.022H249.458C249.71 149.022 249.817 149.103 249.817 149.262C249.817 149.502 249.602 149.583 249.28 149.583C248.418 149.583 246.875 149.463 246.479 149.463C246.084 149.463 244.111 149.583 242.423 149.583C241.955 149.583 241.742 149.502 241.742 149.262C241.742 149.103 241.884 149.022 242.064 149.022C242.314 149.022 242.817 148.983 243.105 148.944C244.758 148.701 245.473 147.184 246.12 145.184L254.267 120.356ZM258.001 136.349C258.181 136.349 258.181 136.226 258.142 136.067L254.733 125.274C254.553 124.672 254.375 124.672 254.194 125.274L251.038 136.067C250.965 136.268 251.038 136.349 251.145 136.349H258.001Z" fill="#003480"/>
<path fill-rule="evenodd" clip-rule="evenodd" d="M286.423 130.949C286.423 124.717 286.423 123.593 286.352 122.313C286.282 120.956 285.994 120.315 284.809 120.036C284.521 119.958 283.911 119.916 283.588 119.916C283.444 119.916 283.303 119.835 283.303 119.676C283.303 119.436 283.481 119.355 283.874 119.355C285.493 119.355 287.754 119.475 287.93 119.475C288.325 119.475 291.055 119.355 292.169 119.355C294.427 119.355 296.832 119.595 298.737 121.116C299.633 121.835 301.213 123.794 301.213 126.552C301.213 129.512 300.1 132.469 296.869 135.789C299.814 139.984 302.253 143.544 304.336 146.024C306.272 148.303 307.818 148.741 308.714 148.902C309.395 149.022 309.898 149.022 310.116 149.022C310.294 149.022 310.435 149.142 310.435 149.262C310.435 149.502 310.221 149.583 309.578 149.583H307.027C305.017 149.583 304.121 149.382 303.186 148.824C301.645 147.901 300.388 145.943 298.341 142.947C296.832 140.746 295.148 138.068 294.427 137.027C294.286 136.868 294.176 136.787 293.961 136.787L289.544 136.709C289.368 136.709 289.295 136.829 289.295 137.027V137.987C289.295 141.823 289.295 144.983 289.475 146.663C289.583 147.823 289.798 148.702 290.877 148.861C291.378 148.944 292.169 149.022 292.489 149.022C292.706 149.022 292.774 149.142 292.774 149.262C292.774 149.463 292.598 149.583 292.203 149.583C290.228 149.583 287.966 149.463 287.788 149.463C287.754 149.463 285.493 149.583 284.414 149.583C284.021 149.583 283.84 149.502 283.84 149.262C283.84 149.142 283.911 149.022 284.126 149.022C284.448 149.022 284.88 148.944 285.205 148.861C285.923 148.702 286.101 147.823 286.245 146.663C286.423 144.983 286.423 141.823 286.423 137.987V130.949ZM289.295 134.43C289.295 134.628 289.368 134.79 289.544 134.91C290.086 135.267 291.737 135.549 293.314 135.549C294.176 135.549 295.182 135.429 296.007 134.79C297.265 133.83 298.197 131.671 298.197 128.631C298.197 123.635 295.826 120.636 291.988 120.636C290.911 120.636 289.942 120.756 289.583 120.876C289.402 120.956 289.295 121.116 289.295 121.353V134.43Z" fill="#003480"/>
<path fill-rule="evenodd" clip-rule="evenodd" d="M328.705 137.987C328.705 141.823 328.705 144.983 328.886 146.663C328.993 147.823 329.205 148.699 330.285 148.861C330.788 148.942 331.576 149.022 331.899 149.022C332.116 149.022 332.187 149.142 332.187 149.262C332.187 149.463 332.006 149.583 331.611 149.583C329.638 149.583 327.377 149.463 327.196 149.463C327.018 149.463 324.757 149.583 323.677 149.583C323.287 149.583 323.106 149.502 323.106 149.262C323.106 149.142 323.177 149.022 323.392 149.022C323.714 149.022 324.144 148.942 324.468 148.861C325.186 148.699 325.365 147.823 325.509 146.663C325.689 144.983 325.689 141.823 325.689 137.987V130.949C325.689 124.714 325.689 123.593 325.616 122.313C325.545 120.954 325.186 120.273 324.398 120.075C324.002 119.955 323.536 119.916 323.287 119.916C323.143 119.916 322.996 119.835 322.996 119.676C322.996 119.436 323.177 119.355 323.572 119.355C324.757 119.355 327.018 119.475 327.196 119.475C327.377 119.475 329.638 119.355 330.714 119.355C331.108 119.355 331.291 119.436 331.291 119.676C331.291 119.835 331.144 119.916 331.003 119.916C330.751 119.916 330.536 119.955 330.104 120.036C329.135 120.234 328.847 120.915 328.776 122.313C328.705 123.593 328.705 124.714 328.705 130.949V137.987Z" fill="#003480"/>
<path fill-rule="evenodd" clip-rule="evenodd" d="M351.383 149.061C350.88 148.782 350.844 148.62 350.844 147.541C350.844 145.546 350.985 143.942 351.024 143.303C351.059 142.865 351.132 142.665 351.313 142.665C351.527 142.665 351.562 142.785 351.562 143.105C351.562 143.465 351.562 144.023 351.669 144.586C352.209 147.541 354.577 148.665 356.982 148.665C360.428 148.665 362.115 145.903 362.115 143.345C362.115 140.586 361.075 138.985 357.991 136.148L356.372 134.67C352.568 131.188 351.708 128.711 351.708 125.994C351.708 121.715 354.577 118.794 359.136 118.794C360.537 118.794 361.578 118.956 362.476 119.196C363.158 119.355 363.443 119.394 363.731 119.394C364.019 119.394 364.09 119.475 364.09 119.676C364.09 119.874 363.946 121.196 363.946 123.913C363.946 124.552 363.875 124.834 363.695 124.834C363.477 124.834 363.443 124.633 363.407 124.312C363.372 123.832 363.157 122.753 362.943 122.315C362.725 121.874 361.756 120.192 358.455 120.192C355.976 120.192 354.042 121.913 354.042 124.834C354.042 127.113 354.973 128.552 358.421 131.551L359.422 132.43C363.66 136.148 364.662 138.628 364.662 141.822C364.662 143.465 364.09 146.503 361.612 148.464C360.071 149.661 358.13 150.143 356.194 150.143C354.506 150.143 352.853 149.864 351.383 149.061Z" fill="#003480"/>
<path fill-rule="evenodd" clip-rule="evenodd" d="M19.5743 40.4899C19.5743 28.4312 19.5743 26.2085 19.4229 23.6699C19.2739 20.9722 18.6781 19.7042 16.212 19.1485C15.6137 18.9918 14.344 18.9111 13.299 18.9111C12.4761 18.9111 12.0293 18.7519 12.0293 18.1987C12.0293 17.643 12.5494 17.4814 13.6726 17.4814C17.6306 17.4814 22.3383 17.7213 24.2795 17.7213C26.0742 17.7213 30.7794 17.4814 33.6924 17.4814C34.7399 17.4814 35.2649 17.643 35.2649 18.1987C35.2649 18.7519 34.8156 18.9111 33.9171 18.9111C33.0967 18.9111 32.6474 18.9918 31.7513 19.1485C29.7344 19.5475 29.1361 20.8964 28.9872 23.6699C28.8382 26.2085 28.8382 28.4312 28.8382 40.4899V55.1655C28.8382 58.5779 29.0629 62.3845 29.0629 66.3502C29.0629 70.8741 28.7626 75.9487 27.2706 80.3918C25.6982 85.2339 21.7401 90.7051 14.5687 95.3856C13.5969 96.0221 12.4004 96.6561 10.8328 97.4492C10.3103 97.765 9.71205 97.9266 9.33846 97.9266C9.04057 97.9266 8.74023 97.6867 8.74023 97.2901C8.74023 96.8935 9.11626 96.5778 10.3835 95.8629C11.3553 95.3073 12.4761 94.4358 13.9705 92.8495C19.6475 86.7369 19.5743 78.8055 19.5743 63.256V40.4899Z" fill="#003480"/>
<path fill-rule="evenodd" clip-rule="evenodd" d="M39.3711 51.9121C39.3711 40.4116 46.9918 25.4961 66.9384 25.4961C83.5252 25.4961 93.8342 35.2537 93.8342 50.7249C93.8342 66.1911 83.2249 78.3306 66.2669 78.3306C47.1407 78.3306 39.3711 63.8925 39.3711 51.9121ZM84.0477 53.1826C84.0477 38.2696 75.6066 29.0652 64.9972 29.0652C57.6744 29.0652 49.0844 33.1925 49.0844 49.8509C49.0844 63.7334 56.5537 74.6807 68.9553 74.6807C73.5873 74.6807 84.0477 72.382 84.0477 53.1826Z" fill="#003480"/>
<path fill-rule="evenodd" clip-rule="evenodd" d="M102.871 76.5847C101.826 76.1098 101.602 75.7916 101.602 74.2836C101.602 70.6361 101.899 66.4305 101.975 65.3192C101.975 64.2886 102.273 63.5762 102.796 63.5762C103.394 63.5762 103.469 64.2102 103.469 64.6876C103.469 65.5566 103.694 66.9862 104.068 68.1759C105.486 73.1747 110.419 74.8393 114.526 74.8393C120.205 74.8393 123.641 71.0303 123.641 66.2714C123.641 63.3363 122.969 60.4012 117.141 56.7513L113.332 54.3718C105.562 49.5322 103.02 45.0108 103.02 39.0598C103.02 30.8101 110.492 25.4956 119.605 25.4956C123.865 25.4956 127.225 26.1296 128.947 26.607C129.542 26.7661 129.843 27.0036 129.843 27.4785C129.843 28.3524 129.618 30.2569 129.618 35.569C129.618 36.9986 129.32 37.711 128.795 37.711C128.348 37.711 128.124 37.3168 128.124 36.5213C128.124 35.8872 127.826 33.826 126.405 32.0806C125.433 30.8101 123.343 28.9081 119.084 28.9081C114.377 28.9081 110.118 31.525 110.118 36.1271C110.118 39.1406 111.163 41.52 117.068 45.0108L119.756 46.5971C128.422 51.6742 131.113 56.8321 131.113 62.9422C131.113 67.9385 129.32 71.9825 124.537 75.5541C121.399 77.9335 117.068 78.3301 113.554 78.3301C109.745 78.3301 105.711 77.9335 102.871 76.5847Z" fill="#003480"/>
<path fill-rule="evenodd" clip-rule="evenodd" d="M143.436 45.962C143.436 35.7295 143.436 33.8274 143.361 31.6854C143.212 29.3819 142.54 28.5887 141.122 28.1138C140.374 27.8764 139.552 27.7956 138.731 27.7956C138.057 27.7956 137.684 27.6365 137.684 27.0025C137.684 26.6083 138.206 26.4468 139.254 26.4468C141.72 26.4468 146.2 26.6083 148.068 26.6083C149.712 26.6083 153.97 26.4468 156.512 26.4468C157.332 26.4468 157.855 26.6083 157.855 27.0025C157.855 27.6365 157.481 27.7956 156.81 27.7956C156.138 27.7956 155.613 27.8764 154.866 28.0355C153.074 28.3513 152.551 29.3011 152.402 31.6854C152.251 33.8274 152.251 35.7295 152.251 45.962V57.8616C152.251 64.3658 152.251 69.7636 152.551 72.6179C152.776 74.4441 153.223 75.4747 155.166 75.7905C156.063 75.9496 157.557 76.0304 158.529 76.0304C159.276 76.0304 159.574 76.4245 159.574 76.7427C159.574 77.2201 159.051 77.4575 158.304 77.4575C153.97 77.4575 149.489 77.2201 147.695 77.2201C146.2 77.2201 141.72 77.4575 139.105 77.4575C138.282 77.4575 137.833 77.2201 137.833 76.7427C137.833 76.4245 138.057 76.0304 138.88 76.0304C139.852 76.0304 140.597 75.9496 141.195 75.7905C142.54 75.4747 142.914 74.5224 143.138 72.5396C143.436 69.7636 143.436 64.3658 143.436 57.8616V45.962Z" fill="#003480"/>
<path fill-rule="evenodd" clip-rule="evenodd" d="M174.813 60.4822C174.439 60.4822 174.363 60.5581 174.214 60.9547L170.703 69.9999C170.032 71.667 169.731 73.334 169.731 74.1272C169.731 75.3169 170.329 76.0293 172.349 76.0293H173.318C174.141 76.0293 174.288 76.3475 174.288 76.7441C174.288 77.2973 173.916 77.4564 173.245 77.4564C171.077 77.4564 168.015 77.2214 165.922 77.2214C165.251 77.2214 161.739 77.4564 158.301 77.4564C157.481 77.4564 157.107 77.2973 157.107 76.7441C157.107 76.3475 157.33 76.0293 157.855 76.0293C158.45 76.0293 159.198 75.9485 159.796 75.9485C162.784 75.476 163.905 73.4124 165.251 69.9999L182.433 27.557C183.18 25.655 183.703 24.8618 184.374 24.8618C185.346 24.8618 185.647 25.4958 186.318 27.0038C187.888 30.7296 198.871 58.3402 203.054 68.5727C205.593 74.6804 207.461 75.5543 208.655 75.7918C209.627 75.9485 210.374 76.0293 211.121 76.0293C211.72 76.0293 212.017 76.2692 212.017 76.7441C212.017 77.2973 211.646 77.4564 209.18 77.4564C206.863 77.4564 202.082 77.4564 196.554 77.2973C195.357 77.2214 194.61 77.2214 194.61 76.7441C194.61 76.3475 194.762 76.11 195.433 76.0293C195.882 75.9485 196.329 75.3169 196.031 74.5213L190.95 60.9547C190.801 60.5581 190.576 60.4822 190.279 60.4822H174.813ZM188.86 56.7515C189.158 56.7515 189.231 56.5924 189.158 56.3549L182.956 39.2216C182.882 38.9817 182.807 38.5851 182.655 38.5851C182.433 38.5851 182.358 38.9817 182.284 39.2216L175.933 56.2766C175.782 56.5924 175.933 56.7515 176.158 56.7515H188.86Z" fill="#003480"/>
<path fill-rule="evenodd" clip-rule="evenodd" d="M221.43 68.2549C221.579 73.4911 222.402 75.0774 223.672 75.5547C224.793 75.9489 226.062 76.0297 227.107 76.0297C227.855 76.0297 228.228 76.3479 228.228 76.7445C228.228 77.2977 227.632 77.4568 226.734 77.4568C222.478 77.4568 219.413 77.2218 218.217 77.2218C217.621 77.2218 214.481 77.4568 211.119 77.4568C210.225 77.4568 209.627 77.3809 209.627 76.7445C209.627 76.3479 210.074 76.0297 210.672 76.0297C211.568 76.0297 212.765 75.9489 213.661 75.7139C215.38 75.2365 215.604 73.4128 215.678 67.5401L216.276 27.5574C216.276 26.211 216.723 25.2588 217.397 25.2588C218.217 25.2588 219.113 26.2894 220.234 27.4791C221.057 28.353 230.919 39.0604 240.481 48.9772C244.964 53.6577 253.706 63.1778 254.678 64.1301H254.976L254.304 34.1425C254.229 30.0201 253.633 28.8279 252.062 28.1939C251.09 27.7973 249.523 27.7973 248.627 27.7973C247.804 27.7973 247.579 27.4791 247.579 27.0825C247.579 26.5293 248.251 26.4485 249.222 26.4485C252.658 26.4485 256.172 26.6076 257.591 26.6076C258.338 26.6076 260.804 26.4485 264.018 26.4485C264.911 26.4485 265.509 26.5293 265.509 27.0825C265.509 27.4791 265.138 27.7973 264.389 27.7973C263.717 27.7973 263.195 27.7973 262.372 28.0348C260.58 28.5905 260.055 29.7826 259.981 33.5892L259.237 76.1104C259.237 77.6159 258.712 78.2524 258.189 78.2524C257.068 78.2524 256.172 77.5376 255.498 76.8228C251.391 72.7763 243.172 64.4459 236.298 57.3859C229.127 50.0885 222.178 41.9197 220.908 40.7275H220.683L221.43 68.2549Z" fill="#003480"/>
<path fill-rule="evenodd" clip-rule="evenodd" d="M278.28 45.962C278.28 35.7295 278.28 33.8274 278.204 31.6854C278.058 29.3819 277.459 28.6696 275.367 28.0355C274.844 27.8764 273.723 27.7956 272.752 27.7956C272.08 27.7956 271.631 27.5582 271.631 27.0833C271.631 26.6084 272.153 26.4468 273.125 26.4468C276.563 26.4468 280.746 26.6084 282.614 26.6084C284.706 26.6084 299.274 26.6867 300.544 26.6084C301.74 26.5276 302.785 26.2901 303.308 26.2093C303.681 26.131 304.055 25.8936 304.355 25.8936C304.729 25.8936 304.802 26.2093 304.802 26.5276C304.802 27.0025 304.428 27.7956 304.282 30.8899C304.204 31.6047 304.055 34.5398 303.903 35.3329C303.833 35.6512 303.681 36.4443 303.159 36.4443C302.712 36.4443 302.636 36.1285 302.636 35.5704C302.636 35.0955 302.563 33.9033 302.187 33.1102C301.667 31.9229 301.142 30.9682 297.855 30.6524C296.734 30.4933 288.892 30.3366 287.544 30.3366C287.246 30.3366 287.094 30.5741 287.094 30.9682V47.6291C287.094 48.0256 287.173 48.3439 287.544 48.3439C289.038 48.3439 297.555 48.3439 299.049 48.1848C300.619 48.0256 301.589 47.8665 302.187 47.1542C302.712 46.6768 302.934 46.2802 303.234 46.2802C303.532 46.2802 303.757 46.596 303.757 46.995C303.757 47.3892 303.608 48.5005 303.234 51.9106C303.083 53.2618 302.934 55.9595 302.934 56.4369C302.934 56.9901 302.861 57.9424 302.263 57.9424C301.816 57.9424 301.667 57.7025 301.667 57.3842C301.589 56.6743 301.589 55.8004 301.44 54.9265C301.066 53.5776 300.243 52.547 297.777 52.3071C296.583 52.1505 289.114 51.9938 287.47 51.9938C287.173 51.9938 287.094 52.3071 287.094 52.7062V58.1015C287.094 60.4001 287.021 66.1137 287.094 68.0965C287.246 72.6963 289.263 73.7293 295.987 73.7293C297.704 73.7293 300.47 73.6485 302.187 72.8554C303.833 72.0622 304.58 70.6351 305.029 67.8591C305.178 67.1443 305.325 66.826 305.771 66.826C306.296 66.826 306.372 67.7 306.372 68.4148C306.372 69.9227 305.847 74.5224 305.473 75.8713C305.029 77.6167 304.428 77.6167 301.962 77.6167C297.032 77.6167 293.074 77.5359 289.861 77.3792C286.648 77.2984 284.181 77.2201 282.24 77.2201C281.493 77.2201 280.072 77.2984 278.504 77.2984C276.937 77.3792 275.291 77.4576 273.948 77.4576C273.125 77.4576 272.676 77.2201 272.676 76.7428C272.676 76.4245 272.901 76.0304 273.723 76.0304C274.695 76.0304 275.442 75.9496 276.038 75.7905C277.384 75.4747 277.757 74.2067 277.982 72.2214C278.28 69.367 278.28 64.05 278.28 57.8616V45.962Z" fill="#003480"/>
<path fill-rule="evenodd" clip-rule="evenodd" d="M350.821 54.4521C350.821 64.6063 350.821 70.08 352.386 71.5071C353.658 72.6968 355.602 73.2525 361.428 73.2525C365.388 73.2525 368.301 73.1742 370.169 71.0322C371.065 69.9992 371.961 67.7789 372.113 66.2709C372.186 65.5586 372.335 65.0812 372.933 65.0812C373.456 65.0812 373.531 65.4778 373.531 66.4325C373.531 67.304 373.009 73.2525 372.408 75.5536C371.961 77.299 371.588 77.6931 367.703 77.6931C362.324 77.6931 358.439 77.5365 355.077 77.4581C351.717 77.299 349.026 77.2207 345.962 77.2207C345.141 77.2207 343.498 77.2207 341.703 77.299C339.987 77.299 338.043 77.4581 336.549 77.4581C335.577 77.4581 335.054 77.2207 335.054 76.6674C335.054 76.2684 335.355 76.031 336.251 76.031C337.372 76.031 338.27 75.8718 338.939 75.7127C340.433 75.3945 340.807 73.6491 341.105 71.348C341.481 68.0188 341.481 61.752 341.481 54.4521V40.4914C341.481 28.4327 341.481 26.2099 341.332 23.6714C341.181 20.9713 340.582 19.7032 338.119 19.15C337.52 18.9933 336.624 18.9125 335.653 18.9125C334.83 18.9125 334.383 18.7534 334.383 18.1977C334.383 17.642 334.905 17.4829 336.024 17.4829C339.537 17.4829 344.245 17.7228 346.264 17.7228C348.054 17.7228 353.511 17.4829 356.422 17.4829C357.467 17.4829 357.992 17.642 357.992 18.1977C357.992 18.7534 357.543 18.9125 356.647 18.9125C355.824 18.9125 354.63 18.9933 353.734 19.15C351.717 19.5465 351.119 20.8954 350.97 23.6714C350.821 26.2099 350.821 28.4327 350.821 40.4914V54.4521Z" fill="#003480"/>
<path fill-rule="evenodd" clip-rule="evenodd" d="M395.119 60.4822C394.748 60.4822 394.67 60.5581 394.521 60.9547L391.012 69.9999C390.338 71.667 390.038 73.334 390.038 74.1272C390.038 75.3169 390.639 76.0293 392.653 76.0293H393.627C394.448 76.0293 394.597 76.3475 394.597 76.7441C394.597 77.2973 394.223 77.4564 393.549 77.4564C391.386 77.4564 388.321 77.2214 386.231 77.2214C385.555 77.2214 382.049 77.4564 378.608 77.4564C377.788 77.4564 377.414 77.2973 377.414 76.7441C377.414 76.3475 377.639 76.0293 378.159 76.0293C378.759 76.0293 379.507 75.9485 380.102 75.9485C383.091 75.476 384.212 73.4124 385.555 69.9999L402.742 27.557C403.489 25.655 404.01 24.8618 404.684 24.8618C405.655 24.8618 405.953 25.4958 406.627 27.0038C408.195 30.7296 419.175 58.3402 423.363 68.5727C425.902 74.6804 427.77 75.5543 428.964 75.7918C429.934 75.9485 430.681 76.0293 431.428 76.0293C432.029 76.0293 432.326 76.2692 432.326 76.7441C432.326 77.2973 431.953 77.4564 429.487 77.4564C427.17 77.4564 422.389 77.4564 416.86 77.2973C415.666 77.2214 414.917 77.2214 414.917 76.7441C414.917 76.3475 415.068 76.11 415.74 76.0293C416.187 75.9485 416.636 75.3169 416.338 74.5213L411.257 60.9547C411.108 60.5581 410.886 60.4822 410.585 60.4822H395.119ZM409.169 56.7515C409.464 56.7515 409.54 56.5924 409.464 56.3549L403.262 39.2216C403.189 38.9817 403.113 38.5851 402.965 38.5851C402.742 38.5851 402.667 38.9817 402.591 39.2216L396.242 56.2766C396.091 56.5924 396.242 56.7515 396.465 56.7515H409.169Z" fill="#003480"/>
<path fill-rule="evenodd" clip-rule="evenodd" d="M434.417 45.962C434.417 35.7295 434.493 33.8274 434.341 31.6854C434.192 29.3011 433.594 28.6695 431.504 28.0355C430.979 27.8764 429.861 27.7956 428.962 27.7956C428.215 27.7956 427.844 27.5582 427.844 27.0832C427.844 26.6083 428.291 26.4468 429.262 26.4468C432.776 26.4468 437.181 26.6083 439.125 26.6083C440.765 26.6083 445.175 26.4468 447.563 26.4468C448.538 26.4468 448.987 26.6083 448.987 27.0832C448.987 27.5582 448.611 27.7956 447.939 27.7956C447.192 27.7956 446.819 27.8764 445.998 28.0355C444.279 28.3513 443.757 29.3011 443.605 31.6854C443.456 33.8274 443.456 35.7295 443.456 45.962V55.4038C443.456 65.2397 445.249 69.0488 448.462 71.744C451.377 74.2066 454.513 74.4441 456.756 74.4441C459.594 74.4441 462.956 73.5702 465.569 70.8725C469.231 67.225 469.38 61.3524 469.38 54.4515V45.962C469.38 35.7295 469.305 33.8274 469.231 31.6854C469.082 29.3819 468.56 28.6695 466.467 28.0355C465.945 27.8764 464.824 27.7956 464.077 27.7956C463.33 27.7956 462.956 27.5582 462.956 27.0832C462.956 26.6083 463.403 26.4468 464.299 26.4468C467.661 26.4468 472.071 26.6083 472.147 26.6083C472.894 26.6083 477.299 26.4468 479.841 26.4468C480.739 26.4468 481.184 26.6083 481.184 27.0832C481.184 27.5582 480.81 27.7956 480.065 27.7956C479.316 27.7956 478.945 27.8764 478.124 28.0355C476.329 28.3513 475.883 29.3011 475.731 31.6854C475.656 33.8274 475.582 35.7295 475.582 45.962V53.1835C475.582 60.7183 474.835 68.6498 469.305 73.4894C464.673 77.6167 459.669 78.329 455.409 78.329C451.973 78.329 445.175 78.1699 440.394 73.7293C437.032 70.6351 434.417 65.6363 434.417 55.8787V45.962Z" fill="#003480"/>
<path fill-rule="evenodd" clip-rule="evenodd" d="M490.673 45.962C490.673 35.7295 490.673 33.8274 490.597 31.6854C490.448 29.3819 489.85 28.6695 487.76 28.0355C487.235 27.8764 486.114 27.7956 485.142 27.7956C484.471 27.7956 484.021 27.5582 484.021 27.0832C484.021 26.6083 484.546 26.4468 485.516 26.4468C488.954 26.4468 493.137 26.6083 494.482 26.6083C496.723 26.6083 502.701 26.4468 504.718 26.4468C508.903 26.4468 513.681 26.8458 517.193 29.3011C519.063 30.6524 521.827 34.0624 521.827 38.5863C521.827 43.5826 519.139 48.0256 512.712 53.4993C518.54 61.1174 523.17 67.225 527.131 71.4282C530.791 75.3156 533.108 75.6314 534.155 75.8713C534.827 76.0304 535.2 76.0304 535.723 76.0304C536.246 76.0304 536.543 76.4245 536.543 76.7427C536.543 77.2984 536.094 77.4575 535.274 77.4575H529.001C525.338 77.4575 523.544 77.0585 521.827 76.1087C518.987 74.6008 516.524 71.4282 512.861 66.192C510.248 62.5445 507.482 58.0207 506.659 56.9901C506.285 56.5935 505.912 56.5127 505.465 56.5127L499.563 56.3561C499.26 56.3561 499.038 56.5127 499.038 56.9093V57.8616C499.038 64.1308 499.116 69.367 499.414 72.2213C499.639 74.2066 499.934 75.4747 501.954 75.7905C502.923 75.9496 504.342 76.0304 505.167 76.0304C505.687 76.0304 505.987 76.4245 505.987 76.7427C505.987 77.2201 505.465 77.4575 504.64 77.4575C500.833 77.4575 495.376 77.2201 494.406 77.2201C493.137 77.2201 488.954 77.4575 486.339 77.4575C485.516 77.4575 485.069 77.2201 485.069 76.7427C485.069 76.4245 485.291 76.0304 486.114 76.0304C487.086 76.0304 487.833 75.9496 488.429 75.7905C489.774 75.4747 490.15 74.2066 490.372 72.2213C490.673 69.367 490.673 64.05 490.673 57.8616V45.962ZM499.038 51.1982C499.038 51.9105 499.187 52.1504 499.639 52.3879C501.055 52.8653 503.001 53.0219 504.64 53.0219C507.257 53.0219 508.153 52.7845 509.276 51.9105C511.291 50.405 513.532 47.4699 513.532 41.9179C513.532 32.3978 507.406 29.9376 503.521 29.9376C501.88 29.9376 500.308 30.0184 499.639 30.175C499.187 30.3366 499.038 30.5741 499.038 31.1297V51.1982Z" fill="#003480"/>
<path fill-rule="evenodd" clip-rule="evenodd" d="M540.051 45.962C540.051 35.7295 540.051 33.8274 539.976 31.6854C539.829 29.3819 539.228 28.6696 537.138 28.0355C536.616 27.8764 535.492 27.7956 534.523 27.7956C533.849 27.7956 533.402 27.5582 533.402 27.0833C533.402 26.6084 533.925 26.4468 534.897 26.4468C538.332 26.4468 542.517 26.6084 544.383 26.6084C546.475 26.6084 561.045 26.6867 562.313 26.6084C563.512 26.5276 564.554 26.2901 565.079 26.2093C565.453 26.131 565.826 25.8936 566.127 25.8936C566.498 25.8936 566.573 26.2093 566.573 26.5276C566.573 27.0025 566.2 27.7956 566.051 30.8899C565.975 31.6047 565.826 34.5398 565.675 35.3329C565.602 35.6512 565.453 36.4443 564.928 36.4443C564.481 36.4443 564.408 36.1285 564.408 35.5704C564.408 35.0955 564.332 33.9033 563.958 33.1102C563.438 31.9229 562.911 30.9682 559.627 30.6524C558.501 30.4933 550.661 30.3366 549.315 30.3366C549.017 30.3366 548.868 30.5741 548.868 30.9682V47.6291C548.868 48.0256 548.942 48.3439 549.315 48.3439C550.81 48.3439 559.326 48.3439 560.821 48.1848C562.391 48.0256 563.36 47.8665 563.958 47.1542C564.481 46.6768 564.706 46.2802 565.006 46.2802C565.304 46.2802 565.528 46.596 565.528 46.995C565.528 47.3892 565.377 48.5005 565.006 51.9106C564.854 53.2618 564.706 55.9595 564.706 56.4369C564.706 56.9901 564.63 57.9424 564.032 57.9424C563.585 57.9424 563.438 57.7025 563.438 57.3842C563.36 56.6743 563.36 55.8004 563.211 54.9265C562.838 53.5776 562.015 52.547 559.549 52.3071C558.355 52.1505 550.885 51.9938 549.242 51.9938C548.942 51.9938 548.868 52.3071 548.868 52.7062V58.1015C548.868 60.4001 548.793 66.1137 548.868 68.0965C549.017 72.6963 551.032 73.7293 557.759 73.7293C559.475 73.7293 562.239 73.6485 563.958 72.8554C565.602 72.0622 566.346 70.6351 566.801 67.8591C566.945 67.1443 567.096 66.826 567.543 66.826C568.068 66.826 568.144 67.7 568.144 68.4148C568.144 69.9227 567.621 74.5224 567.247 75.8713C566.801 77.6167 566.2 77.6167 563.736 77.6167C558.804 77.6167 554.843 77.5359 551.632 77.3792C548.419 77.2984 545.953 77.2201 544.012 77.2201C543.265 77.2201 541.843 77.2984 540.273 77.2984C538.706 77.3792 537.06 77.4576 535.717 77.4576C534.897 77.4576 534.45 77.2201 534.45 76.7428C534.45 76.4245 534.672 76.0304 535.492 76.0304C536.464 76.0304 537.211 75.9496 537.81 75.7905C539.155 75.4747 539.529 74.2067 539.753 72.2214C540.051 69.367 540.051 64.05 540.051 57.8616V45.962Z" fill="#003480"/>
<path fill-rule="evenodd" clip-rule="evenodd" d="M30.8691 91.5469H567.191V88.793H30.8691V91.5469Z" fill="#003480"/>
</svg>
